<?xml version="1.0" encoding="UTF-8"?>
<svg version="1.1" xmlns="http://www.w3.org/2000/svg" width="168" height="149">
<path d="M0 0 C0.99 0 1.98 0 3 0 C3 37.95 3 75.9 3 115 C-7.11178423 112.75293684 -7.11178423 112.75293684 -11.64453125 110.86328125 C-12.64218506 110.45392334 -13.63983887 110.04456543 -14.66772461 109.62280273 C-15.70550049 109.19040283 -16.74327637 108.75800293 -17.8125 108.3125 C-27.5523145 104.32720748 -37.34790286 100.66863972 -47.30859375 97.27734375 C-51 96 -51 96 -53 95 C-52.45309094 91.28416435 -51.56608724 88.97074782 -49.296875 85.98828125 C-48.73508545 85.2394165 -48.1732959 84.49055176 -47.59448242 83.71899414 C-46.98580322 82.92485107 -46.37712402 82.13070801 -45.75 81.3125 C-44.46916153 79.61004464 -43.18923529 77.90690264 -41.91015625 76.203125 C-41.25805176 75.33880859 -40.60594727 74.47449219 -39.93408203 73.58398438 C-36.96400284 69.6158806 -34.07549939 65.59052185 -31.1875 61.5625 C-26.80868414 55.47017706 -22.36251523 49.4400435 -17.8046875 43.48046875 C-16.04417091 41.0607111 -14.49694177 38.58943032 -13 36 C-11.68 36.33 -10.36 36.66 -9 37 C-8.97685409 44.65809552 -8.9590734 52.31618742 -8.94818783 59.97430992 C-8.94296394 63.53008635 -8.93587522 67.08583889 -8.92456055 70.64160156 C-8.91164086 74.72721591 -8.90676771 78.81280506 -8.90234375 82.8984375 C-8.89718246 84.17866791 -8.89202118 85.45889832 -8.88670349 86.77792358 C-8.88662796 87.95899689 -8.88655243 89.14007019 -8.88647461 90.35693359 C-8.884254 91.40062103 -8.88203339 92.44430847 -8.87974548 93.5196228 C-9 96 -9 96 -10 98 C-16.08086416 96.9141314 -21.72079219 95.13696887 -27.5 93 C-28.21865234 92.73880371 -28.93730469 92.47760742 -29.67773438 92.20849609 C-34.87794481 90.24411038 -34.87794481 90.24411038 -36 88 C-31.71 82.39 -27.42 76.78 -23 71 C-22.01 71.33 -21.02 71.66 -20 72 C-19.7045561 77.02254631 -20.01485372 79.89542386 -23 84 C-21.68 84.66 -20.36 85.32 -19 86 C-19.495 75.605 -19.495 75.605 -20 65 C-26.47852393 73.56837036 -32.7897149 82.2355893 -39 91 C-36.03 91.495 -36.03 91.495 -33 92 C-24.42 95.3 -15.84 98.6 -7 102 C-7.33 77.25 -7.66 52.5 -8 27 C-18.45745724 40.66309221 -18.45745724 40.66309221 -28.55078125 54.5546875 C-31.09656176 58.15053844 -33.70012474 61.7023588 -36.3125 65.25 C-41.13949993 71.80814001 -45.91441124 78.40288558 -50.6730957 85.01074219 C-51.45366333 86.09403809 -51.45366333 86.09403809 -52.25 87.19921875 C-52.70890625 87.83690186 -53.1678125 88.47458496 -53.640625 89.1315918 C-55.07457567 91.10250137 -56.53316415 93.05347647 -58 95 C-48.63619358 98.96438352 -39.19774853 102.72744386 -29.73828125 106.45629883 C-27.26749305 107.43060199 -24.79776907 108.40756656 -22.328125 109.38476562 C-20.70318873 110.02620313 -19.07819065 110.6674841 -17.453125 111.30859375 C-16.74214661 111.59004745 -16.03116821 111.87150116 -15.29864502 112.16148376 C-7.5663423 115.20485321 0.21555702 118.08083388 8 121 C8.66 109.12 9.32 97.24 10 85 C15 83 15 83 20 83 C20 94.55 20 106.1 20 118 C21.65 117.34 23.3 116.68 25 116 C25.33 110.06 25.66 104.12 26 98 C33 95 33 95 36 95 C36 103.91 36 112.82 36 122 C30.493125 124.2275 30.493125 124.2275 24.875 126.5 C23.7288623 126.96986328 22.58272461 127.43972656 21.40185547 127.92382812 C20.48291504 128.28927734 19.56397461 128.65472656 18.6171875 129.03125 C17.68503418 129.40830078 16.75288086 129.78535156 15.79248047 130.17382812 C8.89785969 132.21364249 3.94174069 130.10946272 -2.4296875 127.4921875 C-3.33768097 127.12908478 -4.24567444 126.76598206 -5.18118286 126.39187622 C-8.08310739 125.22922339 -10.97913421 124.05265209 -13.875 122.875 C-17.66276085 121.34832016 -21.45258432 119.8267873 -25.2421875 118.3046875 C-26.16533249 117.93280304 -27.08847748 117.56091858 -28.03959656 117.17776489 C-37.77751388 113.26371262 -47.59400071 109.58801321 -57.46484375 106.0234375 C-58.95586097 105.47431607 -60.44675306 104.92485474 -61.9375 104.375 C-62.71544922 104.10171875 -63.49339844 103.8284375 -64.29492188 103.546875 C-69.77375326 101.49530909 -69.77375326 101.49530909 -70.85791016 99.12182617 C-71.04143082 96.38131397 -70.38508191 95.51761451 -68.74609375 93.33984375 C-68.22853516 92.63859375 -67.71097656 91.93734375 -67.17773438 91.21484375 C-66.31631836 90.08755859 -66.31631836 90.08755859 -65.4375 88.9375 C-64.84904297 88.14601563 -64.26058594 87.35453125 -63.65429688 86.5390625 C-62.40729965 84.8632038 -61.15503855 83.19125101 -59.89794922 81.52294922 C-57.487863 78.31921484 -55.1114624 75.0914362 -52.73657227 71.86157227 C-51.5707686 70.27619073 -50.40326374 68.69205887 -49.23413086 67.10913086 C-44.74500812 61.03071836 -40.31499084 54.91150047 -35.90112305 48.77832031 C-31.32727052 42.4317267 -26.68624449 36.13612666 -22.03491211 29.84619141 C-18.49722119 25.05472971 -15.00795401 20.23311688 -11.5625 15.375 C-8.75695824 11.43797262 -5.95163611 7.50125761 -3.0625 3.625 C-2.53785156 2.91601562 -2.01320313 2.20703125 -1.47265625 1.4765625 C-0.98667969 0.98929688 -0.50070313 0.50203125 0 0 Z " fill="#FBFBFB" transform="translate(75,15)"/>
<path d="M0 0 C36.24520638 -2.58381669 36.24520638 -2.58381669 42.94921875 3.2109375 C45.65383824 6.47642095 47.48324444 10.06349115 49.09863281 13.96923828 C50.40713536 16.91726759 52.32532698 19.2891652 54.3125 21.8125 C55.98828125 24.08203125 55.98828125 24.08203125 57 26 C56.505 27.485 56.505 27.485 56 29 C53.33203125 30.25512695 53.33203125 30.25512695 49.8125 31.48828125 C48.54400081 31.95173555 47.27577987 32.41595202 46.0078125 32.88085938 C44.00293997 33.60134508 41.9960181 34.31388209 39.98339844 35.01245117 C38.04290569 35.69124296 36.11550175 36.39991494 34.1875 37.11328125 C33.02605469 37.52360596 31.86460937 37.93393066 30.66796875 38.35668945 C27.67171525 39.7855365 27.67171525 39.7855365 27.11328125 43.18041992 C27.07589844 44.11088135 27.03851563 45.04134277 27 46 C33.69036757 43.85868767 40.34415644 41.69667601 46.86328125 39.07421875 C48.06815186 38.58997437 48.06815186 38.58997437 49.29736328 38.09594727 C50.87138199 37.45653231 52.44153324 36.80749979 54.00732422 36.14819336 C54.73064941 35.85436768 55.45397461 35.56054199 56.19921875 35.2578125 C56.83690186 34.9911377 57.47458496 34.72446289 58.1315918 34.44970703 C60.47905605 33.88469603 61.76881145 34.09436429 64 35 C66 38 66 38 66 41 C57.00751367 44.6852975 48.00784968 48.35243301 39 52 C38.01628418 52.39864258 37.03256836 52.79728516 36.01904297 53.20800781 C33.5367818 54.20959816 31.05079641 55.20101719 28.5625 56.1875 C27.84336426 56.47826416 27.12422852 56.76902832 26.38330078 57.06860352 C22.98125261 58.40414569 20.71771984 59 17 59 C17 50.09 17 41.18 17 32 C27.25 28.125 27.25 28.125 30.46191406 26.91455078 C31.30463867 26.59470215 32.14736328 26.27485352 33.015625 25.9453125 C33.87446289 25.62062988 34.73330078 25.29594727 35.61816406 24.96142578 C37.81236529 24.07573857 39.90191184 23.0915155 42 22 C41.4946875 21.37351562 40.989375 20.74703125 40.46875 20.1015625 C39.8190625 19.28429687 39.169375 18.46703125 38.5 17.625 C37.8503125 16.81289062 37.200625 16.00078125 36.53125 15.1640625 C35 13 35 13 35 11 C32.36 11 29.72 11 27 11 C27 14.3 27 17.6 27 21 C20.375 24 20.375 24 17 24 C17 19.71 17 15.42 17 11 C15.02 11.33 13.04 11.66 11 12 C11 16.95 11 21.9 11 27 C4.1640625 30.22265625 4.1640625 30.22265625 2 31 C1.34 30.67 0.68 30.34 0 30 C0 20.1 0 10.2 0 0 Z " fill="#FBFBFB" transform="translate(101,74)"/>
<path d="M0 0 C3.74821073 3.60043181 6.98597253 7.3626274 10.125 11.5 C10.55425781 12.05558594 10.98351562 12.61117187 11.42578125 13.18359375 C13.84255272 16.34398722 16.02754776 19.54498563 18 23 C15.69 23.66 13.38 24.32 11 25 C11.433125 25.55429687 11.86625 26.10859375 12.3125 26.6796875 C13.1478125 27.76636719 13.1478125 27.76636719 14 28.875 C14.556875 29.59429687 15.11375 30.31359375 15.6875 31.0546875 C17 33 17 33 17 35 C17.68707031 34.95359375 18.37414062 34.9071875 19.08203125 34.859375 C20.43361328 34.80523437 20.43361328 34.80523437 21.8125 34.75 C22.70582031 34.70359375 23.59914063 34.6571875 24.51953125 34.609375 C27 35 27 35 28.82421875 36.828125 C30 39 30 39 30 42 C13.91124852 43.93263237 13.91124852 43.93263237 9.15087891 40.77246094 C5.68769874 37.32544875 3.33053125 33.26290795 1 29 C0.34 28.01 -0.32 27.02 -1 26 C-1.24291992 23.38037109 -1.24291992 23.38037109 -1.23046875 20.2734375 C-1.22756836 18.6028125 -1.22756836 18.6028125 -1.22460938 16.8984375 C-1.21236328 15.73570313 -1.20011719 14.57296875 -1.1875 13.375 C-1.18685547 12.20453125 -1.18621094 11.0340625 -1.18554688 9.828125 C-1.14019224 1.14019224 -1.14019224 1.14019224 0 0 Z " fill="#FBFBFB" transform="translate(102,25)"/>
<path d="M0 0 C4.58375362 4.24421631 9.16022571 8.67763631 9.58349609 15.17529297 C9.58938331 16.69771139 9.56823585 18.22041694 9.5234375 19.7421875 C9.51873444 20.55116486 9.51403137 21.36014221 9.50918579 22.19363403 C9.48798127 24.75498584 9.43140298 27.31420824 9.375 29.875 C9.35847888 31.61716804 9.34413443 33.35935817 9.33203125 35.1015625 C9.19615242 47.80384758 9.19615242 47.80384758 8 49 C6.50261876 49.0979057 5.00057108 49.12974864 3.5 49.125 C2.6853125 49.12757812 1.870625 49.13015625 1.03125 49.1328125 C-1 49 -1 49 -2 48 C-2.10331927 46.56809139 -2.13849886 45.13117197 -2.14526367 43.69555664 C-2.15164352 42.78113297 -2.15802338 41.86670929 -2.16459656 40.92457581 C-2.16570938 39.92981735 -2.1668222 38.9350589 -2.16796875 37.91015625 C-2.17129715 36.89529648 -2.17462555 35.88043671 -2.17805481 34.83482361 C-2.1831285 32.6835882 -2.185463 30.5323449 -2.18530273 28.38110352 C-2.18748834 25.08010964 -2.20563707 21.77945025 -2.22460938 18.47851562 C-2.22754331 16.39323032 -2.2295281 14.30794341 -2.23046875 12.22265625 C-2.23765427 11.22992203 -2.24483978 10.23718781 -2.25224304 9.21437073 C-2.2476281 7.83800697 -2.2476281 7.83800697 -2.24291992 6.43383789 C-2.24434494 5.62411026 -2.24576996 4.81438263 -2.24723816 3.9801178 C-2 2 -2 2 0 0 Z " fill="#FBFBFB" transform="translate(86,2)"/>
<path d="M0 0 C0 37.95 0 75.9 0 115 C-0.99 115 -1.98 115 -3 115 C-3 78.37 -3 41.74 -3 4 C-6.3 8.62 -9.6 13.24 -13 18 C-13.99 19.32 -14.98 20.64 -16 22 C-16.66 22 -17.32 22 -18 22 C-18.10884521 22.57975586 -18.21769043 23.15951172 -18.32983398 23.75683594 C-19.08403268 26.28127223 -20.12422335 27.80424942 -21.72265625 29.890625 C-22.52993164 30.95410156 -22.52993164 30.95410156 -23.35351562 32.0390625 C-23.91748047 32.76867188 -24.48144531 33.49828125 -25.0625 34.25 C-25.91424805 35.36761719 -25.91424805 35.36761719 -26.78320312 36.5078125 C-28.18312683 38.34300661 -29.58883221 40.17344687 -31 42 C-31.66 41.67 -32.32 41.34 -33 41 C-25.37936303 30.30014403 -17.73471205 19.61776997 -10 9 C-9.24847656 7.96230469 -8.49695313 6.92460937 -7.72265625 5.85546875 C-6.80806641 4.62763672 -6.80806641 4.62763672 -5.875 3.375 C-5.12863281 2.36566406 -5.12863281 2.36566406 -4.3671875 1.3359375 C-3 0 -3 0 0 0 Z " fill="#F2F2F2" transform="translate(78,15)"/>
<path d="M0 0 C13.33503765 -1.22153017 13.33503765 -1.22153017 17.33203125 1.7109375 C21 6.65510949 21 6.65510949 21 10 C17.52085059 10.02887814 14.04173169 10.04675687 10.5625 10.0625 C9.07266602 10.07506836 9.07266602 10.07506836 7.55273438 10.08789062 C6.60849609 10.09111328 5.66425781 10.09433594 4.69140625 10.09765625 C3.81685791 10.10289307 2.94230957 10.10812988 2.04125977 10.11352539 C0 10 0 10 -1 9 C-1.23728814 2.47457627 -1.23728814 2.47457627 0 0 Z " fill="#FDFDFD" transform="translate(85,57)"/>
<path d="M0 0 C1.32 0.33 2.64 0.66 4 1 C4.02314591 8.65809552 4.0409266 16.31618742 4.05181217 23.97430992 C4.05703606 27.53008635 4.06412478 31.08583889 4.07543945 34.64160156 C4.08835914 38.72721591 4.09323229 42.81280506 4.09765625 46.8984375 C4.10281754 48.17866791 4.10797882 49.45889832 4.11329651 50.77792358 C4.11337204 51.95899689 4.11344757 53.14007019 4.11352539 54.35693359 C4.115746 55.40062103 4.11796661 56.44430847 4.12025452 57.5196228 C4 60 4 60 3 62 C1.68 61.67 0.36 61.34 -1 61 C-0.67 60.34 -0.34 59.68 0 59 C0.09051069 57.30456409 0.11754872 55.60556022 0.11352539 53.90771484 C0.11344986 52.84676605 0.11337433 51.78581726 0.11329651 50.69271851 C0.10555458 48.96923691 0.10555458 48.96923691 0.09765625 47.2109375 C0.09553383 45.45059677 0.09553383 45.45059677 0.09336853 43.6546936 C0.08775689 39.89477015 0.07520238 36.13490555 0.0625 32.375 C0.0574865 29.83073002 0.05292333 27.28645912 0.04882812 24.7421875 C0.03778368 18.49477147 0.02103418 12.24738994 0 6 C-0.763125 6.969375 -1.52625 7.93875 -2.3125 8.9375 C-4.26748815 11.42086332 -4.85650159 11.9521672 -8 13 C-6.53181332 9.89257577 -4.79975 7.09528261 -2.875 4.25 C-2.33617187 3.45078125 -1.79734375 2.6515625 -1.2421875 1.828125 C-0.62730469 0.92320313 -0.62730469 0.92320313 0 0 Z " fill="#F3F3F3" transform="translate(62,51)"/>
<path d="M0 0 C3.3 0 6.6 0 10 0 C10 4.95 10 9.9 10 15 C3.375 18 3.375 18 0 18 C0 12.06 0 6.12 0 0 Z " fill="#FCFCFC" transform="translate(85,74)"/>
<path d="M0 0 C0 2.97 0 5.94 0 9 C-0.66 8.67 -1.32 8.34 -2 8 C-2.625 5.9375 -2.625 5.9375 -3 4 C-3.68707031 4.96421875 -4.37414062 5.9284375 -5.08203125 6.921875 C-5.99216212 8.19793477 -6.90231978 9.47397543 -7.8125 10.75 C-8.26431641 11.38421875 -8.71613281 12.0184375 -9.18164062 12.671875 C-10.05951277 13.90217757 -10.93980637 15.13075666 -11.82275391 16.35742188 C-12.79460208 17.7134141 -13.7492687 19.08170286 -14.69921875 20.453125 C-15.12847656 20.96359375 -15.55773437 21.4740625 -16 22 C-16.66 22 -17.32 22 -18 22 C-18.10884521 22.57975586 -18.21769043 23.15951172 -18.32983398 23.75683594 C-19.08403268 26.28127223 -20.12422335 27.80424942 -21.72265625 29.890625 C-22.52993164 30.95410156 -22.52993164 30.95410156 -23.35351562 32.0390625 C-23.91748047 32.76867188 -24.48144531 33.49828125 -25.0625 34.25 C-25.91424805 35.36761719 -25.91424805 35.36761719 -26.78320312 36.5078125 C-28.18312683 38.34300661 -29.58883221 40.17344687 -31 42 C-31.66 41.67 -32.32 41.34 -33 41 C-25.37936303 30.30014403 -17.73471205 19.61776997 -10 9 C-9.24847656 7.96230469 -8.49695313 6.92460937 -7.72265625 5.85546875 C-6.80806641 4.62763672 -6.80806641 4.62763672 -5.875 3.375 C-5.12863281 2.36566406 -5.12863281 2.36566406 -4.3671875 1.3359375 C-3 0 -3 0 0 0 Z " fill="#E0E0E0" transform="translate(78,15)"/>
<path d="M0 0 C0.495 0.99 0.495 0.99 1 2 C0.14453125 4.09375 0.14453125 4.09375 -1.1875 6.5 C-1.61417969 7.2940625 -2.04085937 8.088125 -2.48046875 8.90625 C-4.15221566 11.20973674 -5.45253483 11.85177146 -8 13 C-8.67156616 14.93618425 -8.67156616 14.93618425 -9 17 C-9.66 17.99 -10.32 18.98 -11 20 C-11.66 20 -12.32 20 -13 20 C-13.33 21.32 -13.66 22.64 -14 24 C-14.66 24 -15.32 24 -16 24 C-16.12375 24.598125 -16.2475 25.19625 -16.375 25.8125 C-17 28 -17 28 -19 31 C-19.66 31 -20.32 31 -21 31 C-21.26941406 31.72960937 -21.53882813 32.45921875 -21.81640625 33.2109375 C-22.96973634 35.92868564 -24.28832513 38.1827105 -25.9375 40.625 C-26.44152344 41.38039062 -26.94554687 42.13578125 -27.46484375 42.9140625 C-28.86148689 44.81179134 -30.28918258 46.3884289 -32 48 C-32.556875 48.556875 -33.11375 49.11375 -33.6875 49.6875 C-34.120625 50.120625 -34.55375 50.55375 -35 51 C-35 47.52080594 -34.43728985 46.88298833 -32.39453125 44.18359375 C-31.82943848 43.42820313 -31.2643457 42.6728125 -30.68212891 41.89453125 C-29.7566626 40.67830078 -29.7566626 40.67830078 -28.8125 39.4375 C-27.52391379 37.71806647 -26.2361735 35.99799872 -24.94921875 34.27734375 C-23.96187744 32.9622583 -23.96187744 32.9622583 -22.95458984 31.62060547 C-19.96566421 27.61322004 -17.04311172 23.55909601 -14.125 19.5 C-13.06130611 18.02335956 -11.99750747 16.54679456 -10.93359375 15.0703125 C-10.43714355 14.38098633 -9.94069336 13.69166016 -9.42919922 12.98144531 C-6.30052793 8.64384774 -3.15075206 4.32157533 0 0 Z " fill="#E6E6E6" transform="translate(44,57)"/>
<path d="M0 0 C6.38674753 2.06825474 12.67204627 4.34089141 18.9375 6.75 C19.83686279 7.09417969 20.73622559 7.43835938 21.6628418 7.79296875 C30.45462176 11.16249537 39.23029223 14.57349635 48 18 C48 18.66 48 19.32 48 20 C43.99669103 19.51179159 40.64981499 18.54534598 36.9765625 16.88671875 C31.70029652 14.51969824 26.32013473 12.38827289 20.8125 10.625 C16.49270633 9.20841901 12.24161472 7.63350373 8 6 C7.32815674 5.75072754 6.65631348 5.50145508 5.96411133 5.24462891 C4.27312984 4.58247798 2.63088342 3.79880004 1 3 C0.67 2.01 0.34 1.02 0 0 Z " fill="#F1F1F1" transform="translate(22,113)"/>
<path d="M0 0 C2 1.3125 2 1.3125 4 3 C4 3.99 4 4.98 4 6 C3.34 6 2.68 6 2 6 C0.65857083 18.69997721 0.65857083 18.69997721 5 30.0625 C5.99768827 31.04402202 6.99702025 32.02388578 8 33 C8 33.66 8 34.32 8 35 C4.35909815 33.78636605 2.2189472 31.42295588 0.05834961 28.31567383 C-2.12888288 23.52999906 -1.54567219 18.28047704 -1.375 13.125 C-1.36082031 11.97257812 -1.34664063 10.82015625 -1.33203125 9.6328125 C-1.1825574 1.1825574 -1.1825574 1.1825574 0 0 Z " fill="#F2F2F2" transform="translate(102,25)"/>
<path d="M0 0 C1.07491629 4.27433044 1.04858488 8.33858871 0.87890625 12.70703125 C0.85529526 13.43242599 0.83168427 14.15782074 0.80735779 14.90519714 C0.7311668 17.20785295 0.64695297 19.51013389 0.5625 21.8125 C0.50923459 23.37953933 0.45649454 24.94659661 0.40429688 26.51367188 C0.27561258 30.34268248 0.13973538 34.17137741 0 38 C-0.66 37.67 -1.32 37.34 -2 37 C-2.33 26.11 -2.66 15.22 -3 4 C-3.66 4 -4.32 4 -5 4 C-5 3.34 -5 2.68 -5 2 C-2 0 -2 0 0 0 Z " fill="#EFEFEF" transform="translate(70,37)"/>
<path d="M0 0 C1.14855469 0.44730469 2.29710937 0.89460937 3.48046875 1.35546875 C18.64876527 7.43063418 18.64876527 7.43063418 34 13 C34 13.66 34 14.32 34 15 C29.44884328 14.39418377 25.54867316 13.19603012 21.2890625 11.49609375 C20.67606293 11.2533522 20.06306335 11.01061066 19.43148804 10.76051331 C17.49373226 9.99171749 15.55937111 9.21476724 13.625 8.4375 C12.30360203 7.91156482 10.98198933 7.3861688 9.66015625 6.86132812 C6.43759822 5.58044219 3.2180297 4.29222716 0 3 C0 2.01 0 1.02 0 0 Z " fill="#F2F2F2" transform="translate(52,131)"/>
<path d="M0 0 C0.66 0 1.32 0 2 0 C0.6469618 2.85486685 -0.88563599 5.39484009 -2.71484375 7.96875 C-3.23626953 8.70480469 -3.75769531 9.44085938 -4.29492188 10.19921875 C-4.83697266 10.95847656 -5.37902344 11.71773437 -5.9375 12.5 C-6.74477539 13.63888672 -6.74477539 13.63888672 -7.56835938 14.80078125 C-11.81652239 20.78278146 -11.81652239 20.78278146 -13.74047852 23.06054688 C-14.15612061 23.70056641 -14.5717627 24.34058594 -15 25 C-14.67 25.99 -14.34 26.98 -14 28 C-15.32 27.67 -16.64 27.34 -18 27 C-17.37923187 23.53625113 -16.04539763 21.3938635 -13.9453125 18.59375 C-13.33042969 17.76746094 -12.71554688 16.94117187 -12.08203125 16.08984375 C-11.43621094 15.23519531 -10.79039063 14.38054687 -10.125 13.5 C-9.48691406 12.64535156 -8.84882813 11.79070312 -8.19140625 10.91015625 C-6.46680267 8.60228382 -4.73469088 6.30029376 -3 4 C-2.47776855 3.24912109 -1.95553711 2.49824219 -1.41748047 1.72460938 C-0.94971191 1.15548828 -0.48194336 0.58636719 0 0 Z " fill="#EDEDED" transform="translate(32,85)"/>
<path d="M0 0 C0.33 0 0.66 0 1 0 C1.31017562 5.23236285 1.61316112 10.4650731 1.90942383 15.69824219 C2.0112764 17.4792815 2.11510993 19.26020866 2.22094727 21.04101562 C2.3725362 23.59738866 2.51704923 26.1540774 2.66015625 28.7109375 C2.70906509 29.50994476 2.75797394 30.30895203 2.80836487 31.13217163 C3.11387171 36.77225659 3.11387171 36.77225659 2 39 C0.68 38.67 -0.64 38.34 -2 38 C-1.67 37.34 -1.34 36.68 -1 36 C-0.84323225 33.30344554 -0.74163685 30.62870023 -0.68359375 27.9296875 C-0.66281265 27.13345978 -0.64203156 26.33723206 -0.62062073 25.51687622 C-0.55515851 22.96967315 -0.49625585 20.42236575 -0.4375 17.875 C-0.3943116 16.14972873 -0.35069721 14.42446807 -0.30664062 12.69921875 C-0.19948055 8.46625315 -0.09820377 4.23318247 0 0 Z " fill="#EAEAEA" transform="translate(63,74)"/>
<path d="M0 0 C3.49441809 3.2355723 6.64675619 6.84324556 9 11 C9 11.99 9 12.98 9 14 C8.34 14 7.68 14 7 14 C5.7109375 12.25 5.7109375 12.25 4.375 10 C3.92898437 9.2575 3.48296875 8.515 3.0234375 7.75 C2.68570313 7.1725 2.34796875 6.595 2 6 C1.67 7.98 1.34 9.96 1 12 C0.34 12 -0.32 12 -1 12 C-2.17353189 8.47940432 -2.20146402 5.693507 -2 2 C-1.34 1.34 -0.68 0.68 0 0 Z " fill="#EDEDED" transform="translate(86,2)"/>
<path d="M0 0 C0.99 0.33 1.98 0.66 3 1 C3.28571429 8.42857143 3.28571429 8.42857143 1 12 C0.01 11.67 -0.98 11.34 -2 11 C-2 10.34 -2 9.68 -2 9 C-3.98 9.99 -3.98 9.99 -6 11 C-6 7.39426104 -5.18292538 6.58663434 -3 3.8125 C-2.443125 3.09707031 -1.88625 2.38164063 -1.3125 1.64453125 C-0.879375 1.10183594 -0.44625 0.55914062 0 0 Z " fill="#EFEFEF" transform="translate(52,86)"/>
<path d="M0 0 C0.66 0 1.32 0 2 0 C0.50548809 4.53448501 -2.05637181 7.94125958 -5 11.625 C-8.62493987 16.21947196 -8.62493987 16.21947196 -12 21 C-12.66 21 -13.32 21 -14 21 C-12.53261666 16.69303159 -10.32966207 13.53163004 -7.5625 9.9375 C-6.78003906 8.91527344 -5.99757813 7.89304687 -5.19140625 6.83984375 C-4.46824219 5.90269531 -3.74507812 4.96554688 -3 4 C-2.17822266 2.82630859 -2.17822266 2.82630859 -1.33984375 1.62890625 C-0.89769531 1.09136719 -0.45554687 0.55382813 0 0 Z " fill="#EEEEEE" transform="translate(48,63)"/>
<path d="M0 0 C0.99 0 1.98 0 3 0 C2.67 3.96 2.34 7.92 2 12 C1.67 12 1.34 12 1 12 C0.67 10.02 0.34 8.04 0 6 C-0.763125 6.969375 -1.52625 7.93875 -2.3125 8.9375 C-4.26748815 11.42086332 -4.85650159 11.9521672 -8 13 C-6.53779205 9.94965232 -4.89026449 7.09628974 -3.0625 4.25 C-2.55847656 3.45078125 -2.05445313 2.6515625 -1.53515625 1.828125 C-0.77525391 0.92320313 -0.77525391 0.92320313 0 0 Z " fill="#F2F2F2" transform="translate(62,51)"/>
<path d="M0 0 C0.99 0.33 1.98 0.66 3 1 C0.525 4.465 0.525 4.465 -2 8 C-1.01 8.66 -0.02 9.32 1 10 C-2.75 11.125 -2.75 11.125 -5 10 C-4.49701212 5.59885603 -2.91227269 3.28804981 0 0 Z " fill="#EFEFEF" transform="translate(27,100)"/>
<path d="M0 0 C10.55808656 3.07517084 10.55808656 3.07517084 15 5 C15 5.33 15 5.66 15 6 C9.04492601 5.6083965 4.37180176 4.62875405 -1 2 C-0.67 1.34 -0.34 0.68 0 0 Z " fill="#F4F4F4" transform="translate(29,110)"/>
<path d="M0 0 C0.66 0 1.32 0 2 0 C0.59023295 3.03852705 -1.08870228 5.5939595 -3.125 8.25 C-3.66382813 8.95640625 -4.20265625 9.6628125 -4.7578125 10.390625 C-5.16773438 10.92171875 -5.57765625 11.4528125 -6 12 C-6.66 11.34 -7.32 10.68 -8 10 C-7.04956626 8.66102417 -6.08940853 7.32894573 -5.125 6 C-4.59132812 5.2575 -4.05765625 4.515 -3.5078125 3.75 C-3.01023437 3.1725 -2.51265625 2.595 -2 2 C-1.34 2 -0.68 2 0 2 C0 1.34 0 0.68 0 0 Z " fill="#F2F2F2" transform="translate(43,92)"/>
<path d="M0 0 C4.55712436 0.5425148 8.02568234 1.6893502 12 4 C12.33 4.66 12.66 5.32 13 6 C8.39146203 5.27991594 4.32762591 3.68704061 0 2 C0 1.34 0 0.68 0 0 Z " fill="#F4F4F4" transform="translate(59,122)"/>
<path d="M0 0 C0.66 0.66 1.32 1.32 2 2 C0.02 4.64 -1.96 7.28 -4 10 C-4.99 9.67 -5.98 9.34 -7 9 C-4.69 6.03 -2.38 3.06 0 0 Z " fill="#EEEEEE" transform="translate(35,89)"/>
<path d="M0 0 C0.66 0.33 1.32 0.66 2 1 C0.66666667 3.66666667 -0.66666667 6.33333333 -2 9 C-2.66 9 -3.32 9 -4 9 C-4.33 9.66 -4.66 10.32 -5 11 C-5.33 10.34 -5.66 9.68 -6 9 C-4.02 6.03 -2.04 3.06 0 0 Z " fill="#F1F1F1" transform="translate(49,69)"/>
<path d="M0 0 C1.32 0 2.64 0 4 0 C3.67 0.99 3.34 1.98 3 3 C0.49609375 4.16796875 0.49609375 4.16796875 -2.5625 5.1875 C-3.57441406 5.53167969 -4.58632812 5.87585938 -5.62890625 6.23046875 C-6.80259766 6.61138672 -6.80259766 6.61138672 -8 7 C-7.67 6.01 -7.34 5.02 -7 4 C-3.4375 2.8125 -3.4375 2.8125 0 2 C0 1.34 0 0.68 0 0 Z " fill="#F3F3F3" transform="translate(98,138)"/>
<path d="M0 0 C1.62723299 0.45034123 3.25173664 0.91055354 4.875 1.375 C5.77992187 1.63023437 6.68484375 1.88546875 7.6171875 2.1484375 C10 3 10 3 12 5 C9.5332355 5.88336837 8.36140628 6.1312406 5.859375 5.22265625 C5.16328125 4.83980469 4.4671875 4.45695313 3.75 4.0625 C3.04359375 3.68222656 2.3371875 3.30195313 1.609375 2.91015625 C1.07828125 2.60980469 0.5471875 2.30945313 0 2 C0 1.34 0 0.68 0 0 Z " fill="#F1F1F1" transform="translate(71,132)"/>
<path d="M0 0 C0 3.63195496 -0.95453155 4.74713911 -3 7.6875 C-3.556875 8.49574219 -4.11375 9.30398437 -4.6875 10.13671875 C-5.120625 10.75160156 -5.55375 11.36648437 -6 12 C-6.99 11.67 -7.98 11.34 -9 11 C-7.68823998 9.35357683 -6.3755713 7.70787757 -5.0625 6.0625 C-4.33160156 5.14597656 -3.60070313 4.22945313 -2.84765625 3.28515625 C-1 1 -1 1 0 0 Z " fill="#F1F1F1" transform="translate(53,79)"/>
<path d="M0 0 C0.66 0 1.32 0 2 0 C0.25731793 3.96064107 -2.14674729 7.74436549 -5 11 C-5.66 11 -6.32 11 -7 11 C-6 9 -5 7 -4 5 C-3.34 5 -2.68 5 -2 5 C-1.855625 4.360625 -1.71125 3.72125 -1.5625 3.0625 C-1 1 -1 1 0 0 Z " fill="#EDEDED" transform="translate(57,51)"/>
<path d="M0 0 C1 3 1 3 0 5.0625 C-0.33 5.701875 -0.66 6.34125 -1 7 C-0.67 7.66 -0.34 8.32 0 9 C-1.32 8.67 -2.64 8.34 -4 8 C-3.50168276 4.31245243 -2.89932357 2.39509338 0 0 Z " fill="#F1F1F1" transform="translate(8,107)"/>
<path d="M0 0 C0.66 0 1.32 0 2 0 C1.75 2.375 1.75 2.375 1 5 C-1.0625 6.3125 -1.0625 6.3125 -3 7 C-3 3.47967572 -2.29648649 2.5614657 0 0 Z " fill="#F5F5F5" transform="translate(49,90)"/>
<path d="M0 0 C0.99 0 1.98 0 3 0 C2.67 3.96 2.34 7.92 2 12 C1.67 12 1.34 12 1 12 C1 9.03 1 6.06 1 3 C0.34 2.67 -0.32 2.34 -1 2 C-0.67 1.34 -0.34 0.68 0 0 Z " fill="#E4E4E4" transform="translate(62,51)"/>
<path d="M0 0 C2.31 0.66 4.62 1.32 7 2 C7 2.66 7 3.32 7 4 C6.01 4.33 5.02 4.66 4 5 C1.3125 3.0625 1.3125 3.0625 -1 1 C-0.67 0.67 -0.34 0.34 0 0 Z " fill="#F4F4F4" transform="translate(48,110)"/>
</svg>
